<svg width="20" height="20" viewBox="0 0 20 20" fill="none" xmlns="http://www.w3.org/2000/svg">
<path d="M17.9411 11.5143C18.2148 11.0752 18.3333 10.5639 18.3333 10.0464V9.95359C18.3333 9.43609 18.2148 8.92484 17.9411 8.48576C17.5424 7.84629 16.8398 6.83982 15.8333 5.83334C14.5777 4.57772 13.3221 3.79507 12.7791 3.4854C12.5972 3.3817 12.391 3.33334 12.1817 3.33334C11.1793 3.33334 10.4927 4.40565 10.8128 5.35553C11.0132 5.95001 11.2151 6.64242 11.3722 7.38644C11.4771 7.88299 11.0866 8.33334 10.5791 8.33334H2.49999C2.03976 8.33334 1.66666 8.70643 1.66666 9.16668V10.8333C1.66666 11.2936 2.03976 11.6667 2.49999 11.6667H10.5791C11.0866 11.6667 11.4771 12.117 11.3722 12.6136C11.2151 13.3576 11.0132 14.05 10.8128 14.6445C10.4927 15.5943 11.1793 16.6667 12.1817 16.6667C12.391 16.6667 12.5972 16.6183 12.7791 16.5146C13.3221 16.2049 14.5777 15.4223 15.8333 14.1667C16.8398 13.1602 17.5424 12.1538 17.9411 11.5143Z" fill="#6EE4B5"/>
</svg>
