<svg width="24" height="24" viewBox="0 0 24 24" fill="none" xmlns="http://www.w3.org/2000/svg">
<path d="M2 11.9443V12.0557C2 12.6767 2.14218 13.2902 2.47072 13.8171C2.94914 14.5845 3.79223 15.7922 5 17C6.50675 18.5068 8.0135 19.4459 8.66506 19.8175C8.88326 19.942 9.13077 20 9.38197 20C10.5848 20 11.4087 18.7132 11.0246 17.5734C10.7842 16.86 10.5419 16.0291 10.3534 15.1363C10.2275 14.5404 10.6961 14 11.3051 14H21C21.5523 14 22 13.5523 22 13V11C22 10.4477 21.5523 10 21 10H11.3051C10.6961 10 10.2275 9.45957 10.3534 8.86371C10.5419 7.97089 10.7842 7.14 11.0246 6.42662C11.4087 5.28677 10.5848 4 9.38197 4C9.13077 4 8.88326 4.05803 8.66506 4.18247C8.0135 4.55407 6.50675 5.49325 5 7C3.79223 8.20777 2.94914 9.41554 2.47072 10.1829C2.14218 10.7098 2 11.3233 2 11.9443Z" fill="white"/>
</svg>
