<svg width="322" height="136" viewBox="0 0 322 136" fill="none" xmlns="http://www.w3.org/2000/svg">
<g clip-path="url(#clip0_1_554)">
<path fill-rule="evenodd" clip-rule="evenodd" d="M0 86.7895C0 80.3655 5.22044 75.1579 11.6602 75.1579H310.34C316.78 75.1579 322 80.3655 322 86.7895V124.368C322 130.793 316.78 136 310.34 136H11.6602C5.22045 136 0 130.793 0 124.368V86.7895Z" fill="white" fill-opacity="0.9"/>
<path d="M15.0788 122.802C17.1942 122.802 18.5803 121.701 18.5803 119.931V119.925C18.5803 118.562 17.7986 117.769 15.8212 117.33L14.7701 117.094C13.4825 116.812 12.9635 116.301 12.9635 115.547V115.541C12.9635 114.551 13.8767 113.994 15.0592 113.988C16.2942 113.981 17.0825 114.597 17.2139 115.429L17.227 115.514H18.4095L18.403 115.423C18.3044 114.014 16.9839 112.9 15.092 112.9C13.1344 112.9 11.7614 114.007 11.7548 115.573V115.58C11.7548 116.949 12.5759 117.822 14.4745 118.24L15.5256 118.47C16.8263 118.758 17.3716 119.296 17.3716 120.082V120.089C17.3716 121.052 16.4321 121.714 15.1446 121.714C13.7781 121.714 12.7927 121.118 12.7073 120.174L12.7008 120.101H11.5183L11.5248 120.174C11.6628 121.714 13.003 122.802 15.0788 122.802Z" fill="black"/>
<path d="M22.5629 122.703C23.6008 122.703 24.3169 122.277 24.6651 121.524H24.7702V122.579H25.9133V115.514H24.7702V119.695C24.7702 120.934 24.1067 121.694 22.8585 121.694C21.7286 121.694 21.2687 121.085 21.2687 119.813V115.514H20.1256V120.089C20.1256 121.759 20.9534 122.703 22.5629 122.703Z" fill="black"/>
<path d="M27.6688 122.579H33.1213V121.635H29.0352V121.53L33.1017 116.36V115.514H27.6753V116.458H31.7549V116.563L27.6688 121.753V122.579Z" fill="black"/>
<path d="M35.4747 114.151C35.9083 114.151 36.263 113.798 36.263 113.365C36.263 112.933 35.9083 112.578 35.4747 112.578C35.0411 112.578 34.6864 112.933 34.6864 113.365C34.6864 113.798 35.0411 114.151 35.4747 114.151ZM34.8966 122.579H36.0397V115.514H34.8966V122.579Z" fill="black"/>
<path d="M40.8697 122.703C42.5383 122.703 43.55 121.759 43.7931 120.803L43.8062 120.751H42.6631L42.6368 120.809C42.4463 121.236 41.8551 121.688 40.896 121.688C39.6346 121.688 38.8266 120.836 38.7937 119.374H43.8916V118.928C43.8916 116.819 42.7222 115.39 40.7974 115.39C38.8726 115.39 37.6244 116.884 37.6244 119.066V119.073C37.6244 121.288 38.8463 122.703 40.8697 122.703ZM40.7908 116.406C41.8353 116.406 42.6105 117.067 42.7288 118.463H38.8135C38.9383 117.12 39.7397 116.406 40.7908 116.406Z" fill="black"/>
<path d="M49.1764 122.579H50.3589V119.277L51.4953 118.025L54.918 122.579H56.4487L52.3099 117.205L56.1005 113.122H54.6158L50.4639 117.716H50.3589V113.122H49.1764V122.579Z" fill="black"/>
<path d="M59.4983 122.703C60.4509 122.703 61.1933 122.291 61.64 121.537H61.7451V122.579H62.8881V117.743C62.8881 116.275 61.9225 115.39 60.1947 115.39C58.6838 115.39 57.6064 116.137 57.4225 117.244L57.4159 117.284H58.559L58.5655 117.264C58.7495 116.714 59.3078 116.399 60.1553 116.399C61.213 116.399 61.7451 116.871 61.7451 117.743V118.384L59.7151 118.51C58.0663 118.608 57.1334 119.336 57.1334 120.594V120.606C57.1334 121.891 58.1517 122.703 59.4983 122.703ZM58.3027 120.58V120.567C58.3027 119.866 58.7758 119.486 59.8531 119.421L61.7451 119.302V119.945C61.7451 120.954 60.8977 121.714 59.7349 121.714C58.9137 121.714 58.3027 121.294 58.3027 120.58Z" fill="black"/>
<path d="M65.1035 125.056C66.3583 125.056 66.943 124.597 67.5276 123.011L70.2933 115.514H69.0911L67.1532 121.327H67.0481L65.1035 115.514H63.8817L66.5029 122.585L66.3715 123.005C66.1152 123.817 65.7211 124.113 65.0707 124.113C64.913 124.113 64.7356 124.106 64.5977 124.079V125.017C64.7554 125.043 64.9524 125.056 65.1035 125.056Z" fill="black"/>
<path d="M74.2168 122.703C75.8854 122.703 76.8971 121.759 77.1402 120.803L77.1533 120.751H76.0102L75.9839 120.809C75.7934 121.236 75.2022 121.688 74.2431 121.688C72.9817 121.688 72.1737 120.836 72.1408 119.374H77.2387V118.928C77.2387 116.819 76.0693 115.39 74.1445 115.39C72.2197 115.39 70.9715 116.884 70.9715 119.066V119.073C70.9715 121.288 72.1934 122.703 74.2168 122.703ZM74.1379 116.406C75.1824 116.406 75.9576 117.067 76.0759 118.463H72.1606C72.2854 117.12 73.0868 116.406 74.1379 116.406Z" fill="black"/>
<path d="M82.379 124.938H83.5221V121.465H83.6272C84.0147 122.218 84.8622 122.703 85.8344 122.703C87.6344 122.703 88.8037 121.268 88.8037 119.054V119.04C88.8037 116.838 87.6279 115.39 85.8344 115.39C84.8491 115.39 84.0608 115.855 83.6272 116.641H83.5221V115.514H82.379V124.938ZM85.5716 121.694C84.2841 121.694 83.4958 120.685 83.4958 119.054V119.04C83.4958 117.408 84.2841 116.399 85.5716 116.399C86.8658 116.399 87.6344 117.396 87.6344 119.04V119.054C87.6344 120.698 86.8658 121.694 85.5716 121.694Z" fill="black"/>
<path d="M92.3198 122.703C93.2724 122.703 94.015 122.291 94.4617 121.537H94.5666V122.579H95.7093V117.743C95.7093 116.275 94.7442 115.39 93.0158 115.39C91.5054 115.39 90.4282 116.137 90.2443 117.244L90.2371 117.284H91.3807L91.387 117.264C91.5709 116.714 92.1297 116.399 92.9773 116.399C94.0348 116.399 94.5666 116.871 94.5666 117.743V118.384L92.5369 118.51C90.8874 118.608 89.9546 119.336 89.9546 120.594V120.606C89.9546 121.891 90.9735 122.703 92.3198 122.703ZM91.1242 120.58V120.567C91.1242 119.866 91.5969 119.486 92.675 119.421L94.5666 119.302V119.945C94.5666 120.954 93.719 121.714 92.5566 121.714C91.735 121.714 91.1242 121.294 91.1242 120.58Z" fill="black"/>
<path d="M98.1876 114.151C98.6217 114.151 98.976 113.798 98.976 113.365C98.976 112.933 98.6217 112.578 98.1876 112.578C97.7544 112.578 97.3992 112.933 97.3992 113.365C97.3992 113.798 97.7544 114.151 98.1876 114.151ZM97.6099 122.579H98.7526V115.514H97.6099V122.579Z" fill="black"/>
<path d="M103.307 122.703C104.292 122.703 105.081 122.238 105.515 121.452H105.62V122.579H106.762V112.71H105.62V116.629H105.515C105.126 115.875 104.28 115.39 103.307 115.39C101.507 115.39 100.338 116.825 100.338 119.04V119.054C100.338 121.256 101.513 122.703 103.307 122.703ZM103.57 121.694C102.276 121.694 101.507 120.698 101.507 119.054V119.04C101.507 117.396 102.276 116.399 103.57 116.399C104.857 116.399 105.646 117.408 105.646 119.04V119.054C105.646 120.685 104.857 121.694 103.57 121.694Z" fill="black"/>
<path d="M112.928 125.056C114.183 125.056 114.767 124.597 115.351 123.011L118.117 115.514H116.915L114.977 121.327H114.872L112.928 115.514H111.705L114.327 122.585L114.195 123.005C113.94 123.817 113.545 124.113 112.895 124.113C112.737 124.113 112.559 124.106 112.422 124.079V125.017C112.579 125.043 112.776 125.056 112.928 125.056Z" fill="black"/>
<path d="M122.06 122.703C124.078 122.703 125.325 121.314 125.325 119.054V119.04C125.325 116.773 124.078 115.39 122.06 115.39C120.043 115.39 118.796 116.773 118.796 119.04V119.054C118.796 121.314 120.043 122.703 122.06 122.703ZM122.06 121.694C120.72 121.694 119.965 120.718 119.965 119.054V119.04C119.965 117.369 120.72 116.399 122.06 116.399C123.4 116.399 124.156 117.369 124.156 119.04V119.054C124.156 120.718 123.4 121.694 122.06 121.694Z" fill="black"/>
<path d="M129.256 122.703C130.293 122.703 131.009 122.277 131.357 121.524H131.463V122.579H132.606V115.514H131.463V119.695C131.463 120.934 130.799 121.694 129.551 121.694C128.421 121.694 127.961 121.085 127.961 119.813V115.514H126.818V120.089C126.818 121.759 127.646 122.703 129.256 122.703Z" fill="black"/>
<path d="M140.9 123.529H141.688V122.429C143.238 122.303 144.526 121.419 144.526 119.846V119.833C144.526 118.463 143.58 117.769 141.892 117.363L141.688 117.317V114.309C142.574 114.42 143.205 114.964 143.291 115.842V115.855L144.434 115.849V115.842C144.381 114.4 143.205 113.418 141.688 113.28V112.172H140.9V113.28C139.343 113.424 138.232 114.38 138.232 115.783V115.796C138.232 117.081 139.112 117.808 140.748 118.201L140.9 118.24V121.392C139.756 121.268 139.25 120.619 139.132 119.807V119.794L137.989 119.801V119.807C138.042 121.327 139.335 122.277 140.9 122.421V123.529ZM139.375 115.718V115.705C139.375 115.076 139.9 114.447 140.9 114.309V117.126C139.77 116.852 139.375 116.353 139.375 115.718ZM141.727 118.437C143.028 118.752 143.382 119.21 143.382 119.925V119.938C143.382 120.692 142.91 121.307 141.688 121.406V118.431L141.727 118.437Z" fill="black"/>
<path d="M149.586 122.736C151.484 122.736 152.876 121.57 152.876 119.99V119.977C152.876 118.634 151.937 117.775 150.558 117.658V117.631C151.74 117.382 152.568 116.582 152.568 115.417V115.403C152.568 113.968 151.379 112.965 149.572 112.965C147.799 112.965 146.576 113.994 146.426 115.534L146.419 115.6H147.556L147.562 115.534C147.661 114.577 148.455 113.988 149.572 113.988C150.728 113.988 151.379 114.558 151.379 115.547V115.561C151.379 116.504 150.591 117.199 149.461 117.199H148.324V118.195H149.513C150.84 118.195 151.675 118.843 151.675 120.004V120.016C151.675 121.019 150.827 121.714 149.586 121.714C148.325 121.714 147.463 121.071 147.372 120.141L147.365 120.075H146.228L146.236 120.154C146.36 121.648 147.628 122.736 149.586 122.736Z" fill="black"/>
<path d="M157.753 122.802C159.848 122.802 161.109 120.895 161.109 117.854V117.841C161.109 114.8 159.848 112.9 157.753 112.9C155.657 112.9 154.409 114.8 154.409 117.841V117.854C154.409 120.895 155.657 122.802 157.753 122.802ZM157.753 121.773C156.393 121.773 155.598 120.266 155.598 117.854V117.841C155.598 115.429 156.393 113.935 157.753 113.935C159.113 113.935 159.921 115.429 159.921 117.841V117.854C159.921 120.266 159.113 121.773 157.753 121.773Z" fill="black"/>
<path d="M166.012 122.802C168.107 122.802 169.369 120.895 169.369 117.854V117.841C169.369 114.8 168.107 112.9 166.012 112.9C163.916 112.9 162.668 114.8 162.668 117.841V117.854C162.668 120.895 163.916 122.802 166.012 122.802ZM166.012 121.773C164.652 121.773 163.858 120.266 163.858 117.854V117.841C163.858 115.429 164.652 113.935 166.012 113.935C167.372 113.935 168.18 115.429 168.18 117.841V117.854C168.18 120.266 167.372 121.773 166.012 121.773Z" fill="black"/>
<path d="M175.16 122.579H176.303V116.458H177.912V115.514H176.303V114.761C176.303 113.988 176.631 113.588 177.445 113.588C177.649 113.588 177.84 113.594 177.978 113.621V112.71C177.741 112.663 177.492 112.644 177.216 112.644C175.869 112.644 175.16 113.319 175.16 114.729V115.514H173.984V116.458H175.16V122.579Z" fill="black"/>
<path d="M181.954 122.703C183.971 122.703 185.219 121.314 185.219 119.054V119.04C185.219 116.773 183.971 115.39 181.954 115.39C179.937 115.39 178.688 116.773 178.688 119.04V119.054C178.688 121.314 179.937 122.703 181.954 122.703ZM181.954 121.694C180.613 121.694 179.858 120.718 179.858 119.054V119.04C179.858 117.369 180.613 116.399 181.954 116.399C183.294 116.399 184.049 117.369 184.049 119.04V119.054C184.049 120.718 183.294 121.694 181.954 121.694Z" fill="black"/>
<path d="M186.777 122.579H187.921V118.201C187.921 117.166 188.696 116.478 189.786 116.478C190.036 116.478 190.253 116.504 190.489 116.543V115.436C190.377 115.417 190.134 115.39 189.917 115.39C188.958 115.39 188.295 115.823 188.026 116.563H187.921V115.514H186.777V122.579Z" fill="black"/>
<path d="M197.14 113.122H196.293L195.261 116.852H196.569L197.14 113.122ZM199.322 113.122H198.474L197.443 116.852H198.749L199.322 113.122Z" fill="black"/>
<path d="M201.372 122.579H207.245V121.517H202.555V118.267H207.002V117.219H202.555V114.185H207.245V113.122H201.372V122.579Z" fill="black"/>
<path d="M211.642 122.703C212.628 122.703 213.415 122.238 213.849 121.452H213.954V122.579H215.097V112.71H213.954V116.629H213.849C213.462 115.875 212.614 115.39 211.642 115.39C209.842 115.39 208.672 116.825 208.672 119.04V119.054C208.672 121.256 209.848 122.703 211.642 122.703ZM211.905 121.694C210.61 121.694 209.842 120.698 209.842 119.054V119.04C209.842 117.396 210.61 116.399 211.905 116.399C213.192 116.399 213.98 117.408 213.98 119.04V119.054C213.98 120.685 213.192 121.694 211.905 121.694Z" fill="black"/>
<path d="M217.681 114.151C218.114 114.151 218.468 113.798 218.468 113.365C218.468 112.933 218.114 112.578 217.681 112.578C217.247 112.578 216.893 112.933 216.893 113.365C216.893 113.798 217.247 114.151 217.681 114.151ZM217.102 122.579H218.245V115.514H217.102V122.579Z" fill="black"/>
<path d="M222.701 122.632C222.924 122.632 223.142 122.605 223.365 122.566V121.596C223.154 121.615 223.043 121.622 222.839 121.622C222.103 121.622 221.814 121.288 221.814 120.456V116.458H223.365V115.514H221.814V113.686H220.632V115.514H219.515V116.458H220.632V120.744C220.632 122.094 221.243 122.632 222.701 122.632Z" fill="black"/>
<path d="M227.156 122.703C228.766 122.703 229.995 121.832 229.995 120.574V120.56C229.995 119.551 229.351 118.975 228.017 118.654L226.927 118.392C226.092 118.188 225.737 117.887 225.737 117.408V117.396C225.737 116.773 226.355 116.34 227.196 116.34C228.05 116.34 228.602 116.726 228.753 117.284H229.877C229.719 116.131 228.687 115.39 227.203 115.39C225.698 115.39 224.569 116.275 224.569 117.448V117.454C224.569 118.47 225.166 119.047 226.493 119.361L227.59 119.624C228.464 119.833 228.825 120.168 228.825 120.645V120.659C228.825 121.301 228.148 121.753 227.196 121.753C226.29 121.753 225.725 121.367 225.534 120.777H224.365C224.496 121.944 225.58 122.703 227.156 122.703Z" fill="black"/>
<path d="M238.032 122.756C239.372 122.756 240.397 122.35 241.132 121.655L241.974 122.579H243.458L241.803 120.816C242.335 119.918 242.591 118.772 242.591 117.481V117.31H241.487V117.474C241.487 118.404 241.323 119.257 240.995 119.951L238.669 117.474C240.173 116.675 240.719 115.967 240.719 115.036V115.023C240.719 113.791 239.701 112.9 238.302 112.9C236.915 112.9 235.883 113.804 235.883 115.01V115.023C235.883 115.672 236.193 116.249 237.079 117.231L236.731 117.402C235.45 118.031 234.826 118.902 234.826 120.05V120.063C234.826 121.642 236.146 122.756 238.032 122.756ZM237.014 115.088V115.076C237.014 114.348 237.553 113.836 238.308 113.836C239.076 113.836 239.608 114.335 239.608 115.062V115.076C239.608 115.711 239.227 116.19 238.039 116.805C237.283 115.986 237.014 115.58 237.014 115.088ZM236.009 119.984V119.971C236.009 119.191 236.508 118.529 237.414 118.096L237.73 117.946L240.39 120.848C239.851 121.419 239.102 121.759 238.137 121.759C236.869 121.759 236.009 121.039 236.009 119.984Z" fill="black"/>
<path d="M250.511 122.703C252.12 122.703 253.349 121.832 253.349 120.574V120.56C253.349 119.551 252.705 118.975 251.371 118.654L250.28 118.392C249.446 118.188 249.092 117.887 249.092 117.408V117.396C249.092 116.773 249.709 116.34 250.549 116.34C251.404 116.34 251.956 116.726 252.106 117.284H253.23C253.072 116.131 252.041 115.39 250.556 115.39C249.052 115.39 247.922 116.275 247.922 117.448V117.454C247.922 118.47 248.519 119.047 249.847 119.361L250.944 119.624C251.817 119.833 252.179 120.168 252.179 120.645V120.659C252.179 121.301 251.502 121.753 250.549 121.753C249.643 121.753 249.078 121.367 248.887 120.777H247.718C247.849 121.944 248.934 122.703 250.511 122.703Z" fill="black"/>
<path d="M257.357 122.632C257.58 122.632 257.797 122.605 258.021 122.566V121.596C257.81 121.615 257.699 121.622 257.495 121.622C256.76 121.622 256.47 121.288 256.47 120.456V116.458H258.021V115.514H256.47V113.686H255.288V115.514H254.171V116.458H255.288V120.744C255.288 122.094 255.898 122.632 257.357 122.632Z" fill="black"/>
<path d="M261.885 122.703C262.922 122.703 263.639 122.277 263.987 121.524H264.092V122.579H265.235V115.514H264.092V119.695C264.092 120.934 263.428 121.694 262.181 121.694C261.051 121.694 260.59 121.085 260.59 119.813V115.514H259.448V120.089C259.448 121.759 260.276 122.703 261.885 122.703Z" fill="black"/>
<path d="M267.825 122.579H268.968V116.458H270.578V115.514H268.968V114.761C268.968 113.988 269.297 113.588 270.111 113.588C270.315 113.588 270.505 113.594 270.643 113.621V112.71C270.406 112.663 270.157 112.644 269.881 112.644C268.535 112.644 267.825 113.319 267.825 114.729V115.514H266.649V116.458H267.825V122.579Z" fill="black"/>
<path d="M272.485 122.579H273.627V116.458H275.236V115.514H273.627V114.761C273.627 113.988 273.956 113.588 274.77 113.588C274.974 113.588 275.165 113.594 275.303 113.621V112.71C275.066 112.663 274.817 112.644 274.54 112.644C273.194 112.644 272.485 113.319 272.485 114.729V115.514H271.308V116.458H272.485V122.579Z" fill="black"/>
<path d="M276.926 116.852H277.774L278.805 113.122H277.499L276.926 116.852ZM279.108 116.852H279.955L280.987 113.122H279.679L279.108 116.852Z" fill="black"/>
<g style="mix-blend-mode:hard-light">
<path d="M232.623 97.0038C234.291 97.0038 235.482 95.8505 235.482 94.1979V94.1863C235.482 92.6017 234.371 91.4493 232.828 91.4493C232.082 91.4493 231.439 91.7499 231.074 92.3011H230.983L231.262 89.5292H235.026V88.6147H230.454L230.021 93.3229H230.909C231.012 93.1296 231.143 92.9712 231.285 92.8343C231.638 92.4997 232.105 92.3351 232.652 92.3351C233.716 92.3351 234.479 93.1126 234.479 94.2033V94.2149C234.479 95.3226 233.727 96.1001 232.635 96.1001C231.672 96.1001 230.961 95.4756 230.864 94.6918L230.858 94.6462H229.873L229.878 94.7088C229.999 96.0205 231.092 97.0038 232.623 97.0038Z" fill="black" fill-opacity="0.4"/>
</g>
<g style="mix-blend-mode:color-burn">
<path d="M232.623 97.0038C234.291 97.0038 235.482 95.8505 235.482 94.1979V94.1863C235.482 92.6017 234.371 91.4493 232.828 91.4493C232.082 91.4493 231.439 91.7499 231.074 92.3011H230.983L231.262 89.5292H235.026V88.6147H230.454L230.021 93.3229H230.909C231.012 93.1296 231.143 92.9712 231.285 92.8343C231.638 92.4997 232.105 92.3351 232.652 92.3351C233.716 92.3351 234.479 93.1126 234.479 94.2033V94.2149C234.479 95.3226 233.727 96.1001 232.635 96.1001C231.672 96.1001 230.961 95.4756 230.864 94.6918L230.858 94.6462H229.873L229.878 94.7088C229.999 96.0205 231.092 97.0038 232.623 97.0038Z" fill="#3F3F3F" fill-opacity="0.2"/>
</g>
<g style="mix-blend-mode:hard-light">
<path d="M242.392 96.9179C243.786 96.9179 244.851 96.1628 244.851 95.0721V95.0613C244.851 94.1863 244.293 93.6861 243.138 93.4079L242.192 93.1815C241.47 93.0052 241.162 92.744 241.162 92.3288V92.3181C241.162 91.7785 241.697 91.4036 242.426 91.4036C243.167 91.4036 243.645 91.7383 243.776 92.2214H244.749C244.612 91.222 243.718 90.5796 242.432 90.5796C241.128 90.5796 240.148 91.3464 240.148 92.3628V92.3691C240.148 93.2495 240.667 93.7487 241.817 94.0216L242.767 94.2489C243.524 94.4305 243.838 94.7204 243.838 95.1347V95.1463C243.838 95.7029 243.252 96.0948 242.426 96.0948C241.64 96.0948 241.151 95.7592 240.985 95.2483H239.973C240.086 96.2594 241.026 96.9179 242.392 96.9179Z" fill="black" fill-opacity="0.4"/>
</g>
<g style="mix-blend-mode:color-burn">
<path d="M242.392 96.9179C243.786 96.9179 244.851 96.1628 244.851 95.0721V95.0613C244.851 94.1863 244.293 93.6861 243.138 93.4079L242.192 93.1815C241.47 93.0052 241.162 92.744 241.162 92.3288V92.3181C241.162 91.7785 241.697 91.4036 242.426 91.4036C243.167 91.4036 243.645 91.7383 243.776 92.2214H244.749C244.612 91.222 243.718 90.5796 242.432 90.5796C241.128 90.5796 240.148 91.3464 240.148 92.3628V92.3691C240.148 93.2495 240.667 93.7487 241.817 94.0216L242.767 94.2489C243.524 94.4305 243.838 94.7204 243.838 95.1347V95.1463C243.838 95.7029 243.252 96.0948 242.426 96.0948C241.64 96.0948 241.151 95.7592 240.985 95.2483H239.973C240.086 96.2594 241.026 96.9179 242.392 96.9179Z" fill="#3F3F3F" fill-opacity="0.2"/>
</g>
<g style="mix-blend-mode:hard-light">
<path d="M248.822 96.9179C250.268 96.9179 251.145 96.1001 251.356 95.2707L251.367 95.226H250.376L250.354 95.277C250.189 95.6456 249.676 96.0375 248.845 96.0375C247.752 96.0375 247.051 95.2993 247.022 94.0333H251.441V93.6468C251.441 91.8179 250.427 90.5796 248.759 90.5796C247.091 90.5796 246.01 91.8752 246.01 93.7657V93.772C246.01 95.6912 247.068 96.9179 248.822 96.9179ZM248.754 91.46C249.659 91.46 250.33 92.0335 250.433 93.2432H247.04C247.148 92.0792 247.843 91.46 248.754 91.46Z" fill="black" fill-opacity="0.4"/>
</g>
<g style="mix-blend-mode:color-burn">
<path d="M248.822 96.9179C250.268 96.9179 251.145 96.1001 251.356 95.2707L251.367 95.226H250.376L250.354 95.277C250.189 95.6456 249.676 96.0375 248.845 96.0375C247.752 96.0375 247.051 95.2993 247.022 94.0333H251.441V93.6468C251.441 91.8179 250.427 90.5796 248.759 90.5796C247.091 90.5796 246.01 91.8752 246.01 93.7657V93.772C246.01 95.6912 247.068 96.9179 248.822 96.9179ZM248.754 91.46C249.659 91.46 250.33 92.0335 250.433 93.2432H247.04C247.148 92.0792 247.843 91.46 248.754 91.46Z" fill="#3F3F3F" fill-opacity="0.2"/>
</g>
<g style="mix-blend-mode:hard-light">
<path d="M255.417 96.9179C256.891 96.9179 257.717 96.1287 257.968 95.0211L257.979 94.9584L257 94.9647L256.988 94.9987C256.76 95.6805 256.237 96.0438 255.411 96.0438C254.318 96.0438 253.612 95.1401 253.612 93.7318V93.721C253.612 92.3404 254.307 91.4546 255.411 91.4546C256.294 91.4546 256.84 91.9432 256.995 92.5453L257 92.5623H257.985L257.979 92.5283C257.797 91.4376 256.903 90.5796 255.411 90.5796C253.692 90.5796 252.599 91.8179 252.599 93.721V93.7318C252.599 95.6742 253.697 96.9179 255.417 96.9179Z" fill="black" fill-opacity="0.4"/>
</g>
<g style="mix-blend-mode:color-burn">
<path d="M255.417 96.9179C256.891 96.9179 257.717 96.1287 257.968 95.0211L257.979 94.9584L257 94.9647L256.988 94.9987C256.76 95.6805 256.237 96.0438 255.411 96.0438C254.318 96.0438 253.612 95.1401 253.612 93.7318V93.721C253.612 92.3404 254.307 91.4546 255.411 91.4546C256.294 91.4546 256.84 91.9432 256.995 92.5453L257 92.5623H257.985L257.979 92.5283C257.797 91.4376 256.903 90.5796 255.411 90.5796C253.692 90.5796 252.599 91.8179 252.599 93.721V93.7318C252.599 95.6742 253.697 96.9179 255.417 96.9179Z" fill="#3F3F3F" fill-opacity="0.2"/>
</g>
<g style="mix-blend-mode:hard-light">
<path d="M261.882 96.9179C263.629 96.9179 264.711 95.7145 264.711 93.755V93.7434C264.711 91.7785 263.629 90.5796 261.882 90.5796C260.134 90.5796 259.052 91.7785 259.052 93.7434V93.755C259.052 95.7145 260.134 96.9179 261.882 96.9179ZM261.882 96.0438C260.72 96.0438 260.066 95.1973 260.066 93.755V93.7434C260.066 92.2948 260.72 91.4546 261.882 91.4546C263.043 91.4546 263.697 92.2948 263.697 93.7434V93.755C263.697 95.1973 263.043 96.0438 261.882 96.0438Z" fill="black" fill-opacity="0.4"/>
</g>
<g style="mix-blend-mode:color-burn">
<path d="M261.882 96.9179C263.629 96.9179 264.711 95.7145 264.711 93.755V93.7434C264.711 91.7785 263.629 90.5796 261.882 90.5796C260.134 90.5796 259.052 91.7785 259.052 93.7434V93.755C259.052 95.7145 260.134 96.9179 261.882 96.9179ZM261.882 96.0438C260.72 96.0438 260.066 95.1973 260.066 93.755V93.7434C260.066 92.2948 260.72 91.4546 261.882 91.4546C263.043 91.4546 263.697 92.2948 263.697 93.7434V93.755C263.697 95.1973 263.043 96.0438 261.882 96.0438Z" fill="#3F3F3F" fill-opacity="0.2"/>
</g>
<g style="mix-blend-mode:hard-light">
<path d="M266.176 96.8105H267.168V93.1869C267.168 92.1132 267.788 91.4546 268.767 91.4546C269.746 91.4546 270.202 91.9825 270.202 93.0849V96.8105H271.192V92.846C271.192 91.392 270.424 90.5796 269.046 90.5796C268.141 90.5796 267.566 90.9607 267.258 91.6076H267.168V90.6879H266.176V96.8105Z" fill="black" fill-opacity="0.4"/>
</g>
<g style="mix-blend-mode:color-burn">
<path d="M266.176 96.8105H267.168V93.1869C267.168 92.1132 267.788 91.4546 268.767 91.4546C269.746 91.4546 270.202 91.9825 270.202 93.0849V96.8105H271.192V92.846C271.192 91.392 270.424 90.5796 269.046 90.5796C268.141 90.5796 267.566 90.9607 267.258 91.6076H267.168V90.6879H266.176V96.8105Z" fill="#3F3F3F" fill-opacity="0.2"/>
</g>
<g style="mix-blend-mode:hard-light">
<path d="M275.18 96.9179C276.034 96.9179 276.717 96.5153 277.093 95.8335H277.185V96.8106H278.175V88.257H277.185V91.6533H277.093C276.758 91.0001 276.023 90.5796 275.18 90.5796C273.62 90.5796 272.607 91.8233 272.607 93.7434V93.755C272.607 95.6626 273.626 96.9179 275.18 96.9179ZM275.408 96.0438C274.287 96.0438 273.62 95.1803 273.62 93.755V93.7434C273.62 92.3181 274.287 91.4547 275.408 91.4547C276.524 91.4547 277.207 92.3288 277.207 93.7434V93.755C277.207 95.1687 276.524 96.0438 275.408 96.0438Z" fill="black" fill-opacity="0.4"/>
</g>
<g style="mix-blend-mode:color-burn">
<path d="M275.18 96.9179C276.034 96.9179 276.717 96.5153 277.093 95.8335H277.185V96.8106H278.175V88.257H277.185V91.6533H277.093C276.758 91.0001 276.023 90.5796 275.18 90.5796C273.62 90.5796 272.607 91.8233 272.607 93.7434V93.755C272.607 95.6626 273.626 96.9179 275.18 96.9179ZM275.408 96.0438C274.287 96.0438 273.62 95.1803 273.62 93.755V93.7434C273.62 92.3181 274.287 91.4547 275.408 91.4547C276.524 91.4547 277.207 92.3288 277.207 93.7434V93.755C277.207 95.1687 276.524 96.0438 275.408 96.0438Z" fill="#3F3F3F" fill-opacity="0.2"/>
</g>
<g style="mix-blend-mode:hard-light">
<path d="M282.111 96.9179C283.506 96.9179 284.571 96.1628 284.571 95.0721V95.0613C284.571 94.1863 284.013 93.6861 282.858 93.4079L281.912 93.1815C281.189 93.0052 280.882 92.744 280.882 92.3288V92.3181C280.882 91.7785 281.417 91.4036 282.146 91.4036C282.886 91.4036 283.364 91.7383 283.495 92.2214H284.469C284.332 91.222 283.438 90.5796 282.151 90.5796C280.848 90.5796 279.868 91.3464 279.868 92.3628V92.3691C279.868 93.2495 280.387 93.7487 281.537 94.0216L282.487 94.2489C283.244 94.4305 283.557 94.7204 283.557 95.1347V95.1463C283.557 95.7029 282.971 96.0948 282.146 96.0948C281.36 96.0948 280.87 95.7592 280.705 95.2483H279.692C279.805 96.2594 280.745 96.9179 282.111 96.9179Z" fill="black" fill-opacity="0.4"/>
</g>
<g style="mix-blend-mode:color-burn">
<path d="M282.111 96.9179C283.506 96.9179 284.571 96.1628 284.571 95.0721V95.0613C284.571 94.1863 284.013 93.6861 282.858 93.4079L281.912 93.1815C281.189 93.0052 280.882 92.744 280.882 92.3288V92.3181C280.882 91.7785 281.417 91.4036 282.146 91.4036C282.886 91.4036 283.364 91.7383 283.495 92.2214H284.469C284.332 91.222 283.438 90.5796 282.151 90.5796C280.848 90.5796 279.868 91.3464 279.868 92.3628V92.3691C279.868 93.2495 280.387 93.7487 281.537 94.0216L282.487 94.2489C283.244 94.4305 283.557 94.7204 283.557 95.1347V95.1463C283.557 95.7029 282.971 96.0948 282.146 96.0948C281.36 96.0948 280.87 95.7592 280.705 95.2483H279.692C279.805 96.2594 280.745 96.9179 282.111 96.9179Z" fill="#3F3F3F" fill-opacity="0.2"/>
</g>
<g style="mix-blend-mode:hard-light">
<path d="M290.941 96.9179C291.766 96.9179 292.41 96.56 292.797 95.9069H292.888V96.8105H293.878V92.6187C293.878 91.3464 293.042 90.5796 291.545 90.5796C290.235 90.5796 289.301 91.2274 289.142 92.1874L289.136 92.2214H290.126L290.133 92.2044C290.292 91.7275 290.776 91.4546 291.51 91.4546C292.427 91.4546 292.888 91.8635 292.888 92.6187V93.1752L291.128 93.2835C289.7 93.3685 288.891 93.9993 288.891 95.0891V95.1007C288.891 96.2138 289.774 96.9179 290.941 96.9179ZM289.905 95.0783V95.0667C289.905 94.4592 290.315 94.1299 291.249 94.0726L292.888 93.9706V94.5272C292.888 95.4013 292.154 96.0607 291.145 96.0607C290.434 96.0607 289.905 95.6975 289.905 95.0783Z" fill="black" fill-opacity="0.4"/>
</g>
<g style="mix-blend-mode:color-burn">
<path d="M290.941 96.9179C291.766 96.9179 292.41 96.56 292.797 95.9069H292.888V96.8105H293.878V92.6187C293.878 91.3464 293.042 90.5796 291.545 90.5796C290.235 90.5796 289.301 91.2274 289.142 92.1874L289.136 92.2214H290.126L290.133 92.2044C290.292 91.7275 290.776 91.4546 291.51 91.4546C292.427 91.4546 292.888 91.8635 292.888 92.6187V93.1752L291.128 93.2835C289.7 93.3685 288.891 93.9993 288.891 95.0891V95.1007C288.891 96.2138 289.774 96.9179 290.941 96.9179ZM289.905 95.0783V95.0667C289.905 94.4592 290.315 94.1299 291.249 94.0726L292.888 93.9706V94.5272C292.888 95.4013 292.154 96.0607 291.145 96.0607C290.434 96.0607 289.905 95.6975 289.905 95.0783Z" fill="#3F3F3F" fill-opacity="0.2"/>
</g>
<g style="mix-blend-mode:hard-light">
<path d="M298.145 98.9687C299.819 98.9687 300.878 98.0936 300.878 96.7246V90.6879H299.888V91.6989H299.819C299.443 91.0055 298.771 90.5796 297.907 90.5796C296.301 90.5796 295.31 91.8233 295.31 93.5385V93.5501C295.31 95.2653 296.295 96.492 297.883 96.492C298.726 96.492 299.421 96.1118 299.808 95.4362H299.899V96.6736C299.899 97.5773 299.244 98.0936 298.145 98.0936C297.262 98.0936 296.716 97.7643 296.608 97.2991L296.602 97.2928H295.577L295.566 97.2991C295.72 98.3039 296.665 98.9687 298.145 98.9687ZM298.099 95.6179C296.961 95.6179 296.323 94.7661 296.323 93.5501V93.5385C296.323 92.3234 296.961 91.4546 298.099 91.4546C299.233 91.4546 299.922 92.3234 299.922 93.5385V93.5501C299.922 94.7661 299.238 95.6179 298.099 95.6179Z" fill="black" fill-opacity="0.4"/>
</g>
<g style="mix-blend-mode:color-burn">
<path d="M298.145 98.9687C299.819 98.9687 300.878 98.0936 300.878 96.7246V90.6879H299.888V91.6989H299.819C299.443 91.0055 298.771 90.5796 297.907 90.5796C296.301 90.5796 295.31 91.8233 295.31 93.5385V93.5501C295.31 95.2653 296.295 96.492 297.883 96.492C298.726 96.492 299.421 96.1118 299.808 95.4362H299.899V96.6736C299.899 97.5773 299.244 98.0936 298.145 98.0936C297.262 98.0936 296.716 97.7643 296.608 97.2991L296.602 97.2928H295.577L295.566 97.2991C295.72 98.3039 296.665 98.9687 298.145 98.9687ZM298.099 95.6179C296.961 95.6179 296.323 94.7661 296.323 93.5501V93.5385C296.323 92.3234 296.961 91.4546 298.099 91.4546C299.233 91.4546 299.922 92.3234 299.922 93.5385V93.5501C299.922 94.7661 299.238 95.6179 298.099 95.6179Z" fill="#3F3F3F" fill-opacity="0.2"/>
</g>
<g style="mix-blend-mode:hard-light">
<path d="M305.173 96.9179C306.921 96.9179 308.002 95.7145 308.002 93.755V93.7434C308.002 91.7785 306.921 90.5796 305.173 90.5796C303.425 90.5796 302.344 91.7785 302.344 93.7434V93.755C302.344 95.7145 303.425 96.9179 305.173 96.9179ZM305.173 96.0438C304.012 96.0438 303.357 95.1973 303.357 93.755V93.7434C303.357 92.2948 304.012 91.4546 305.173 91.4546C306.335 91.4546 306.99 92.2948 306.99 93.7434V93.755C306.99 95.1973 306.335 96.0438 305.173 96.0438Z" fill="black" fill-opacity="0.4"/>
</g>
<g style="mix-blend-mode:color-burn">
<path d="M305.173 96.9179C306.921 96.9179 308.002 95.7145 308.002 93.755V93.7434C308.002 91.7785 306.921 90.5796 305.173 90.5796C303.425 90.5796 302.344 91.7785 302.344 93.7434V93.755C302.344 95.7145 303.425 96.9179 305.173 96.9179ZM305.173 96.0438C304.012 96.0438 303.357 95.1973 303.357 93.755V93.7434C303.357 92.2948 304.012 91.4546 305.173 91.4546C306.335 91.4546 306.99 92.2948 306.99 93.7434V93.755C306.99 95.1973 306.335 96.0438 305.173 96.0438Z" fill="#3F3F3F" fill-opacity="0.2"/>
</g>
<path d="M8.96936 89.7242C8.96936 87.821 8.96936 86.8695 9.32293 86.135C9.67597 85.4017 10.2689 84.8102 11.0041 84.458C11.7404 84.1053 12.6942 84.1053 14.6021 84.1053H21.2753C23.1832 84.1053 24.1371 84.1053 24.8734 84.458C25.6085 84.8102 26.2015 85.4017 26.5545 86.135C26.9081 86.8695 26.9081 87.821 26.9081 89.7242V96.3811C26.9081 98.2842 26.9081 99.2362 26.5545 99.9699C26.2015 100.704 25.6085 101.295 24.8734 101.647C24.1371 102 23.1832 102 21.2753 102H14.6021C12.6942 102 11.7404 102 11.0041 101.647C10.2689 101.295 9.67597 100.704 9.32293 99.9699C8.96936 99.2362 8.96936 98.2842 8.96936 96.3811V89.7242Z" fill="#7352FF"/>
<path d="M12.8935 94.843C12.998 96.934 14.7322 98.0792 17.7846 98.0855C19.634 98.09 21.0813 97.6659 21.9687 96.8606C22.5414 96.3416 22.8453 95.6572 22.8453 94.8841C22.8453 93.4463 22.0113 92.463 20.2878 92.0353L12.8935 94.843Z" fill="white"/>
<path d="M21.4993 88.2098C21.8076 88.5796 22.0891 89.0035 22.3493 89.4916C22.5606 89.8853 22.7493 90.3022 22.9252 90.7254L22.9839 90.703C22.9285 89.598 22.4176 88.7581 21.4993 88.2098Z" fill="white"/>
<path d="M21.7777 89.7287C21.9835 90.1188 22.168 90.5303 22.3386 90.9473L22.6234 90.839C22.4485 90.4113 22.2597 89.989 22.0475 89.5873C21.6966 88.9247 21.3073 88.3679 20.8668 87.9025C20.661 87.8217 20.4402 87.7526 20.2055 87.6942C20.8124 88.2096 21.3276 88.8768 21.7777 89.7287Z" fill="white"/>
<path d="M19.5631 87.9047C20.2201 88.438 20.7704 89.1414 21.2472 90.0544C21.4338 90.4123 21.6013 90.7863 21.7581 91.1683L22.0257 91.0663C21.8658 90.6753 21.694 90.2915 21.501 89.922C21.0062 88.9746 20.4312 88.2425 19.7434 87.6837C19.6964 87.6454 19.6495 87.6083 19.6015 87.5721C19.4095 87.5413 19.21 87.5179 19.002 87.4998C19.2026 87.6284 19.3893 87.7633 19.5631 87.9047Z" fill="white"/>
<path d="M17.7259 87.4658C18.2314 87.7304 18.6836 88.0268 19.091 88.3604C19.7427 88.8938 20.2877 89.5989 20.7559 90.5169C20.9009 90.8015 21.0343 91.0949 21.1591 91.3956L21.4171 91.298C20.9201 90.1045 20.2888 88.9842 19.2659 88.1469C18.9641 87.9004 18.6389 87.6719 18.2858 87.4627C18.2218 87.4616 18.1578 87.4605 18.0917 87.4605C17.969 87.4605 17.8464 87.4616 17.7259 87.4658Z" fill="white"/>
<path d="M18.8506 88.6973C18.2448 88.2064 17.5494 87.8335 16.8167 87.5339C16.6364 87.5562 16.4615 87.5828 16.292 87.6147C16.2931 87.6147 16.2941 87.6157 16.2952 87.6157C17.2764 87.9769 18.0571 88.3977 18.681 88.9034C19.3434 89.44 19.898 90.1474 20.3768 91.0654C20.4665 91.2381 20.5528 91.4152 20.6349 91.5933L20.8856 91.4984C20.7992 91.3088 20.7096 91.1244 20.6147 90.941C20.1187 89.9917 19.5417 89.2573 18.8506 88.6973Z" fill="white"/>
<path d="M18.49 89.3358C17.6303 88.6388 16.5776 88.1735 15.5015 87.8123C15.365 87.8558 15.2338 87.9036 15.1069 87.9546C16.2683 88.3233 17.416 88.7972 18.3267 89.5345C18.987 90.0705 19.5426 90.772 20.0268 91.6819C20.0481 91.7213 20.0684 91.7615 20.0887 91.8018L20.3318 91.7096C20.3063 91.6595 20.2807 91.6103 20.255 91.562C19.7537 90.6216 19.1767 89.8924 18.49 89.3358Z" fill="white"/>
<path d="M17.8243 90.7881C16.6884 89.8593 15.1846 89.2987 13.7533 88.8376C13.6935 88.9014 13.637 88.9661 13.5836 89.0341C15.0224 89.4943 16.5444 90.0499 17.6717 90.9733C18.1143 91.3348 18.4844 91.7884 18.8065 92.2886L19.0359 92.2018C18.6966 91.6658 18.301 91.1782 17.8243 90.7881Z" fill="white"/>
<path d="M18.1524 90.0374C17.1179 89.1956 15.7889 88.6771 14.4814 88.2648C14.3875 88.3212 14.2979 88.3796 14.2126 88.4413C15.5596 88.8567 16.9429 89.3741 17.9945 90.2298C18.5876 90.712 19.0504 91.3518 19.4376 92.0497L19.6733 91.9602C19.2691 91.2256 18.7827 90.5501 18.1524 90.0374Z" fill="white"/>
<path d="M17.4906 91.5781C16.3206 90.6153 14.7528 90.0177 13.2852 89.5139C13.2521 89.5837 13.2223 89.6544 13.1956 89.7269C14.6483 90.2252 16.2001 90.814 17.3434 91.7552C17.625 91.987 17.8788 92.2581 18.1092 92.5542L18.3343 92.4692C18.0825 92.1391 17.8042 91.8358 17.4906 91.5781Z" fill="white"/>
<path d="M17.1332 92.3923C15.9803 91.4573 14.4754 90.8319 13.0547 90.2995C13.0451 90.3747 13.0388 90.4498 13.0345 90.5277C13.6104 90.7433 14.1906 90.9723 14.7527 91.23C15.6721 91.6506 16.4048 92.0863 16.9924 92.5632C17.1044 92.6536 17.2121 92.752 17.3155 92.8549L17.5416 92.769C17.4126 92.6348 17.2771 92.5086 17.1332 92.3923Z" fill="white"/>
<path d="M13.0756 91.2104C13.0906 91.2963 13.1087 91.3804 13.1301 91.4618C13.5449 91.6354 13.9587 91.8161 14.363 92.0112C15.166 92.4004 15.8241 92.7941 16.367 93.2146L16.5984 93.126C16.0247 92.667 15.3228 92.2402 14.4557 91.8206C14.0035 91.6023 13.5396 91.4019 13.0756 91.2104Z" fill="white"/>
<path d="M14.2724 92.9766C14.3908 93.0401 14.5071 93.1036 14.6222 93.1707C14.891 93.3005 15.1939 93.4096 15.5309 93.4964C14.9369 93.0929 14.2905 92.7421 13.624 92.42C13.801 92.6285 14.0164 92.8146 14.2724 92.9766Z" fill="white"/>
<path d="M36.9268 96.824C38.7601 96.824 39.9614 95.8702 39.9614 94.3366V94.3312C39.9614 93.1493 39.2839 92.4621 37.5701 92.0819L36.6592 91.8779C35.5432 91.6336 35.0935 91.1898 35.0935 90.5367V90.5313C35.0935 89.6741 35.8849 89.1911 36.9097 89.1853C37.98 89.1797 38.6633 89.7135 38.7771 90.4347L38.7885 90.5089H39.8134L39.8076 90.4293C39.7222 89.2081 38.5778 88.2426 36.9381 88.2426C35.2415 88.2426 34.0516 89.2024 34.0459 90.5599V90.5653C34.0459 91.7526 34.7576 92.5078 36.4029 92.871L37.314 93.0706C38.4412 93.3202 38.9138 93.7855 38.9138 94.4672V94.4726C38.9138 95.3083 38.0996 95.8818 36.9837 95.8818C35.7995 95.8818 34.9454 95.3647 34.8714 94.5469L34.8658 94.4842H33.8409L33.8466 94.5469C33.9662 95.8818 35.1277 96.824 36.9268 96.824Z" fill="black"/>
<g style="mix-blend-mode:hard-light">
<path d="M36.9268 96.824C38.7601 96.824 39.9614 95.8702 39.9614 94.3366V94.3312C39.9614 93.1493 39.2839 92.4621 37.5701 92.0819L36.6592 91.8779C35.5432 91.6336 35.0935 91.1898 35.0935 90.5367V90.5313C35.0935 89.6741 35.8849 89.1911 36.9097 89.1853C37.98 89.1797 38.6633 89.7135 38.7771 90.4347L38.7885 90.5089H39.8134L39.8076 90.4293C39.7222 89.2081 38.5778 88.2426 36.9381 88.2426C35.2415 88.2426 34.0516 89.2024 34.0459 90.5599V90.5653C34.0459 91.7526 34.7576 92.5078 36.4029 92.871L37.314 93.0706C38.4412 93.3202 38.9138 93.7855 38.9138 94.4672V94.4726C38.9138 95.3083 38.0996 95.8818 36.9837 95.8818C35.7995 95.8818 34.9454 95.3647 34.8714 94.5469L34.8658 94.4842H33.8409L33.8466 94.5469C33.9662 95.8818 35.1277 96.824 36.9268 96.824Z" fill="black" fill-opacity="0.4"/>
</g>
<g style="mix-blend-mode:color-burn">
<path d="M36.9268 96.824C38.7601 96.824 39.9614 95.8702 39.9614 94.3366V94.3312C39.9614 93.1493 39.2839 92.4621 37.5701 92.0819L36.6592 91.8779C35.5432 91.6336 35.0935 91.1898 35.0935 90.5367V90.5313C35.0935 89.6741 35.8849 89.1911 36.9097 89.1853C37.98 89.1797 38.6633 89.7135 38.7771 90.4347L38.7885 90.5089H39.8134L39.8076 90.4293C39.7222 89.2081 38.5778 88.2426 36.9381 88.2426C35.2415 88.2426 34.0516 89.2024 34.0459 90.5599V90.5653C34.0459 91.7526 34.7576 92.5078 36.4029 92.871L37.314 93.0706C38.4412 93.3202 38.9138 93.7855 38.9138 94.4672V94.4726C38.9138 95.3083 38.0996 95.8818 36.9837 95.8818C35.7995 95.8818 34.9454 95.3647 34.8714 94.5469L34.8658 94.4842H33.8409L33.8466 94.5469C33.9662 95.8818 35.1277 96.824 36.9268 96.824Z" fill="#3F3F3F" fill-opacity="0.2"/>
</g>
<path d="M43.7327 96.6316H44.7576V89.3558H47.405V88.4356H41.0852V89.3558H43.7327V96.6316Z" fill="black"/>
<g style="mix-blend-mode:hard-light">
<path d="M43.7327 96.6316H44.7576V89.3558H47.405V88.4356H41.0852V89.3558H43.7327V96.6316Z" fill="black" fill-opacity="0.4"/>
</g>
<g style="mix-blend-mode:color-burn">
<path d="M43.7327 96.6316H44.7576V89.3558H47.405V88.4356H41.0852V89.3558H43.7327V96.6316Z" fill="#3F3F3F" fill-opacity="0.2"/>
</g>
<path d="M48.916 96.6316H49.9409V88.4356H48.916V96.6316Z" fill="black"/>
<g style="mix-blend-mode:hard-light">
<path d="M48.916 96.6316H49.9409V88.4356H48.916V96.6316Z" fill="black" fill-opacity="0.4"/>
</g>
<g style="mix-blend-mode:color-burn">
<path d="M48.916 96.6316H49.9409V88.4356H48.916V96.6316Z" fill="#3F3F3F" fill-opacity="0.2"/>
</g>
<path d="M51.9642 96.6316H52.9891V93.3882H55.0102L56.7695 96.6316H57.9708L56.0692 93.2289C57.0997 92.905 57.7203 92.0192 57.7203 90.8838V90.8722C57.7203 89.4011 56.6841 88.4356 55.1014 88.4356H51.9642V96.6316ZM52.9891 92.4791V89.3444H54.9647C56.0237 89.3444 56.6613 89.9291 56.6613 90.9062V90.9178C56.6613 91.9172 56.0635 92.4791 55.0102 92.4791H52.9891Z" fill="black"/>
<g style="mix-blend-mode:hard-light">
<path d="M51.9642 96.6316H52.9891V93.3882H55.0102L56.7695 96.6316H57.9708L56.0692 93.2289C57.0997 92.905 57.7203 92.0192 57.7203 90.8838V90.8722C57.7203 89.4011 56.6841 88.4356 55.1014 88.4356H51.9642V96.6316ZM52.9891 92.4791V89.3444H54.9647C56.0237 89.3444 56.6613 89.9291 56.6613 90.9062V90.9178C56.6613 91.9172 56.0635 92.4791 55.0102 92.4791H52.9891Z" fill="black" fill-opacity="0.4"/>
</g>
<g style="mix-blend-mode:color-burn">
<path d="M51.9642 96.6316H52.9891V93.3882H55.0102L56.7695 96.6316H57.9708L56.0692 93.2289C57.0997 92.905 57.7203 92.0192 57.7203 90.8838V90.8722C57.7203 89.4011 56.6841 88.4356 55.1014 88.4356H51.9642V96.6316ZM52.9891 92.4791V89.3444H54.9647C56.0237 89.3444 56.6613 89.9291 56.6613 90.9062V90.9178C56.6613 91.9172 56.0635 92.4791 55.0102 92.4791H52.9891Z" fill="#3F3F3F" fill-opacity="0.2"/>
</g>
<path fill-rule="evenodd" clip-rule="evenodd" d="M0 11.6316C0 5.20764 5.22044 0 11.6602 0H310.34C316.78 0 322 5.20764 322 11.6316V49.2105C322 55.6345 316.78 60.8421 310.34 60.8421H11.6602C5.22045 60.8421 0 55.6345 0 49.2105V11.6316Z" fill="white" fill-opacity="0.9"/>
<path d="M14.6194 48.3708H15.4077V47.2699C16.9581 47.1454 18.2457 46.2607 18.2457 44.6879V44.6748C18.2457 43.3052 17.2997 42.6105 15.6114 42.2042L15.4077 42.1584V39.1504C16.2946 39.2619 16.9253 39.8058 17.0107 40.6839V40.697L18.1537 40.6904V40.6839C18.1012 39.2422 16.9253 38.2592 15.4077 38.1215V37.0141H14.6194V38.1215C13.0625 38.2657 11.9523 39.2225 11.9523 40.6249V40.638C11.9523 41.9224 12.8326 42.6499 14.4684 43.043L14.6194 43.0824V46.2345C13.4764 46.11 12.9705 45.4612 12.8523 44.6486V44.6355L11.7092 44.642V44.6486C11.7618 46.169 13.056 47.1192 14.6194 47.2633V48.3708ZM13.0954 40.5594V40.5463C13.0954 39.9172 13.6209 39.2881 14.6194 39.1504V41.9683C13.4896 41.693 13.0954 41.195 13.0954 40.5594ZM15.4472 43.279C16.7479 43.5936 17.1027 44.0523 17.1027 44.7665V44.7797C17.1027 45.5333 16.6296 46.1493 15.4077 46.2476V43.2724L15.4472 43.279Z" fill="black"/>
<path d="M23.3056 47.5779C25.2042 47.5779 26.5969 46.4114 26.5969 44.832V44.819C26.5969 43.4755 25.6575 42.6171 24.2779 42.4991V42.4729C25.4604 42.2239 26.2881 41.4244 26.2881 40.2579V40.2448C26.2881 38.8096 25.0991 37.807 23.2925 37.807C21.5188 37.807 20.2969 38.8359 20.1458 40.3759L20.1393 40.4414H21.2757L21.2823 40.3759C21.3808 39.4191 22.1758 38.8293 23.2925 38.8293C24.4487 38.8293 25.0991 39.3995 25.0991 40.3889V40.4021C25.0991 41.3458 24.3107 42.0404 23.1809 42.0404H22.0444V43.0365H23.2334C24.5604 43.0365 25.3947 43.6852 25.3947 44.8452V44.8582C25.3947 45.8609 24.5473 46.5556 23.3056 46.5556C22.0444 46.5556 21.1838 45.9133 21.0918 44.9828L21.0852 44.9173H19.9488L19.9553 44.9959C20.0801 46.4901 21.348 47.5779 23.3056 47.5779Z" fill="black"/>
<path d="M31.4729 47.6434C33.5686 47.6434 34.8298 45.7365 34.8298 42.6958V42.6826C34.8298 39.642 33.5686 37.7415 31.4729 37.7415C29.3773 37.7415 28.1291 39.642 28.1291 42.6826V42.6958C28.1291 45.7365 29.3773 47.6434 31.4729 47.6434ZM31.4729 46.6146C30.113 46.6146 29.3182 45.1074 29.3182 42.6958V42.6826C29.3182 40.2711 30.113 38.7769 31.4729 38.7769C32.8327 38.7769 33.6408 40.2711 33.6408 42.6826V42.6958C33.6408 45.1074 32.8327 46.6146 31.4729 46.6146Z" fill="black"/>
<path d="M39.7321 47.6434C41.8277 47.6434 43.0891 45.7365 43.0891 42.6958V42.6826C43.0891 39.642 41.8277 37.7415 39.7321 37.7415C37.6365 37.7415 36.3883 39.642 36.3883 42.6826V42.6958C36.3883 45.7365 37.6365 47.6434 39.7321 47.6434ZM39.7321 46.6146C38.3723 46.6146 37.5773 45.1074 37.5773 42.6958V42.6826C37.5773 40.2711 38.3723 38.7769 39.7321 38.7769C41.092 38.7769 41.9 40.2711 41.9 42.6826V42.6958C41.9 45.1074 41.092 46.6146 39.7321 46.6146Z" fill="black"/>
<path d="M48.9848 38.9932C49.4184 38.9932 49.7731 38.6393 49.7731 38.2068C49.7731 37.7743 49.4184 37.4204 48.9848 37.4204C48.5512 37.4204 48.1965 37.7743 48.1965 38.2068C48.1965 38.6393 48.5512 38.9932 48.9848 38.9932ZM47.3819 49.8454C48.8665 49.8454 49.5563 49.2228 49.5563 47.768V40.3562H48.4133V47.7876C48.4133 48.5674 48.1242 48.8361 47.3556 48.8361H47.1848V49.8454H47.3819Z" fill="black"/>
<path d="M53.8739 47.5451C54.9119 47.5451 55.628 47.1192 55.9761 46.3655H56.0812V47.4206H57.2242V40.3562H56.0812V44.5372C56.0812 45.7757 55.4177 46.5359 54.1695 46.5359C53.0396 46.5359 52.5797 45.9265 52.5797 44.6551V40.3562H51.4367V44.9304C51.4367 46.6015 52.2645 47.5451 53.8739 47.5451Z" fill="black"/>
<path d="M61.5748 47.5452C63.1842 47.5452 64.4127 46.6736 64.4127 45.4153V45.4023C64.4127 44.393 63.7689 43.8164 62.4354 43.4952L61.3448 43.2331C60.5105 43.03 60.1557 42.7285 60.1557 42.2501V42.2371C60.1557 41.6145 60.7733 41.182 61.6141 41.182C62.4682 41.182 63.02 41.5686 63.1711 42.1256H64.2944C64.1368 40.9723 63.1054 40.2317 61.6207 40.2317C60.1163 40.2317 58.9864 41.1164 58.9864 42.2894V42.296C58.9864 43.3117 59.5842 43.8885 60.9112 44.203L62.0083 44.4651C62.882 44.6749 63.2433 45.009 63.2433 45.4875V45.5005C63.2433 46.1428 62.5667 46.595 61.6141 46.595C60.7076 46.595 60.1426 46.2083 59.9521 45.6185H58.7828C58.9142 46.785 59.9981 47.5452 61.5748 47.5452Z" fill="black"/>
<path d="M68.4215 47.473C68.6448 47.473 68.8616 47.4468 69.0851 47.4076V46.4377C68.8748 46.4573 68.7632 46.4639 68.5595 46.4639C67.8237 46.4639 67.5346 46.1296 67.5346 45.2974V41.2999H69.0851V40.3562H67.5346V38.5278H66.3522V40.3562H65.2354V41.2999H66.3522V45.5857C66.3522 46.9357 66.9631 47.473 68.4215 47.473Z" fill="black"/>
<path d="M76.761 47.5452C77.7465 47.5452 78.5348 47.0799 78.9684 46.2934H79.0735V47.4206H80.2166V37.5514H79.0735V41.4702H78.9684C78.5808 40.7166 77.7333 40.2317 76.761 40.2317C74.9611 40.2317 73.7917 41.6668 73.7917 43.8818V43.895C73.7917 46.0968 74.9676 47.5452 76.761 47.5452ZM77.0238 46.5359C75.7296 46.5359 74.9611 45.5399 74.9611 43.895V43.8818C74.9611 42.237 75.7296 41.2409 77.0238 41.2409C78.3115 41.2409 79.0998 42.2501 79.0998 43.8818V43.895C79.0998 45.5267 78.3115 46.5359 77.0238 46.5359Z" fill="black"/>
<path d="M85.0859 47.5452C86.7546 47.5452 87.7662 46.6015 88.0093 45.6447L88.0225 45.5923H86.8794L86.8531 45.6513C86.6626 46.0772 86.0714 46.5294 85.1122 46.5294C83.8509 46.5294 83.0429 45.6775 83.0101 44.2161H88.1079V43.7705C88.1079 41.6603 86.9386 40.2317 85.0137 40.2317C83.0889 40.2317 81.8407 41.7259 81.8407 43.9081V43.9147C81.8407 46.1296 83.0626 47.5452 85.0859 47.5452ZM85.0071 41.2475C86.0517 41.2475 86.8268 41.9093 86.9451 43.3052H83.0297C83.1546 41.9618 83.9561 41.2475 85.0071 41.2475Z" fill="black"/>
<path d="M89.6663 49.7798H90.8094V46.3066H90.9143C91.3018 47.0602 92.1494 47.5452 93.1217 47.5452C94.9218 47.5452 96.0914 46.11 96.0914 43.895V43.8819C96.0914 41.68 94.9155 40.2317 93.1217 40.2317C92.1368 40.2317 91.3484 40.697 90.9143 41.4834H90.8094V40.3562H89.6663V49.7798ZM92.8589 46.5359C91.5718 46.5359 90.7834 45.5267 90.7834 43.895V43.8819C90.7834 42.2501 91.5718 41.241 92.8589 41.241C94.1532 41.241 94.9218 42.2371 94.9218 43.8819V43.895C94.9218 45.5399 94.1532 46.5359 92.8589 46.5359Z" fill="black"/>
<path d="M100.573 47.5452C102.59 47.5452 103.838 46.1558 103.838 43.895V43.8819C103.838 41.6145 102.59 40.2317 100.573 40.2317C98.5562 40.2317 97.3077 41.6145 97.3077 43.8819V43.895C97.3077 46.1558 98.5562 47.5452 100.573 47.5452ZM100.573 46.5359C99.2325 46.5359 98.4773 45.5595 98.4773 43.895V43.8819C98.4773 42.2108 99.2325 41.241 100.573 41.241C101.913 41.241 102.669 42.2108 102.669 43.8819V43.895C102.669 45.5595 101.913 46.5359 100.573 46.5359Z" fill="black"/>
<path d="M107.827 47.5452C109.437 47.5452 110.665 46.6736 110.665 45.4153V45.4023C110.665 44.393 110.021 43.8164 108.688 43.4952L107.597 43.2331C106.763 43.03 106.408 42.7285 106.408 42.2501V42.2371C106.408 41.6145 107.026 41.182 107.866 41.182C108.72 41.182 109.272 41.5686 109.424 42.1256H110.546C110.39 40.9723 109.358 40.2317 107.873 40.2317C106.369 40.2317 105.238 41.1164 105.238 42.2894V42.296C105.238 43.3117 105.837 43.8885 107.163 44.203L108.261 44.4651C109.135 44.6749 109.495 45.009 109.495 45.4875V45.5005C109.495 46.1428 108.819 46.595 107.866 46.595C106.96 46.595 106.395 46.2083 106.204 45.6185H105.035C105.167 46.785 106.25 47.5452 107.827 47.5452Z" fill="black"/>
<path d="M112.828 38.9932C113.261 38.9932 113.616 38.6393 113.616 38.2068C113.616 37.7743 113.261 37.4204 112.828 37.4204C112.394 37.4204 112.04 37.7743 112.04 38.2068C112.04 38.6393 112.394 38.9932 112.828 38.9932ZM112.25 47.4206H113.392V40.3562H112.25V47.4206Z" fill="black"/>
<path d="M117.848 47.473C118.072 47.473 118.289 47.4468 118.512 47.4076V46.4377C118.301 46.4573 118.19 46.4639 117.987 46.4639C117.25 46.4639 116.961 46.1296 116.961 45.2974V41.2999H118.512V40.3562H116.961V38.5278H115.779V40.3562H114.662V41.2999H115.779V45.5857C115.779 46.9357 116.39 47.473 117.848 47.473Z" fill="black"/>
<path d="M122.79 47.5452C124.459 47.5452 125.471 46.6015 125.714 45.6447L125.726 45.5923H124.584L124.557 45.6513C124.366 46.0772 123.775 46.5294 122.817 46.5294C121.555 46.5294 120.747 45.6775 120.714 44.2161H125.812V43.7705C125.812 41.6603 124.643 40.2317 122.718 40.2317C120.793 40.2317 119.545 41.7259 119.545 43.9081V43.9147C119.545 46.1296 120.767 47.5452 122.79 47.5452ZM122.712 41.2475C123.756 41.2475 124.531 41.9093 124.649 43.3052H120.734C120.859 41.9618 121.66 41.2475 122.712 41.2475Z" fill="black"/>
<path d="M129.985 47.5452C130.971 47.5452 131.759 47.0799 132.192 46.2934H132.297V47.4206H133.441V37.5514H132.297V41.4702H132.192C131.805 40.7166 130.957 40.2317 129.985 40.2317C128.185 40.2317 127.016 41.6668 127.016 43.8818V43.895C127.016 46.0968 128.192 47.5452 129.985 47.5452ZM130.248 46.5359C128.953 46.5359 128.185 45.5399 128.185 43.895V43.8818C128.185 42.237 128.953 41.2409 130.248 41.2409C131.536 41.2409 132.324 42.2501 132.324 43.8818V43.895C132.324 45.5267 131.536 46.5359 130.248 46.5359Z" fill="black"/>
<path d="M139.593 38.9932C140.026 38.9932 140.381 38.6393 140.381 38.2068C140.381 37.7743 140.026 37.4204 139.593 37.4204C139.159 37.4204 138.804 37.7743 138.804 38.2068C138.804 38.6393 139.159 38.9932 139.593 38.9932ZM139.014 47.4206H140.157V40.3562H139.014V47.4206Z" fill="black"/>
<path d="M142.097 47.4206H143.24V43.2397C143.24 42.0011 143.956 41.241 145.086 41.241C146.216 41.241 146.741 41.8504 146.741 43.1217V47.4206H147.884V42.8465C147.884 41.1688 146.998 40.2317 145.408 40.2317C144.364 40.2317 143.7 40.6708 143.345 41.4178H143.24V40.3562H142.097V47.4206Z" fill="black"/>
<path d="M153.912 49.8978C155.166 49.8978 155.751 49.439 156.336 47.8531L159.101 40.3562H157.899L155.961 46.169H155.856L153.912 40.3562H152.69L155.311 47.4271L155.18 47.8466C154.923 48.6592 154.529 48.9541 153.879 48.9541C153.721 48.9541 153.544 48.9476 153.406 48.9213V49.8584C153.563 49.8846 153.761 49.8978 153.912 49.8978Z" fill="black"/>
<path d="M163.045 47.5452C165.061 47.5452 166.31 46.1558 166.31 43.895V43.8819C166.31 41.6145 165.061 40.2317 163.045 40.2317C161.028 40.2317 159.779 41.6145 159.779 43.8819V43.895C159.779 46.1558 161.028 47.5452 163.045 47.5452ZM163.045 46.5359C161.704 46.5359 160.949 45.5595 160.949 43.895V43.8819C160.949 42.2108 161.704 41.241 163.045 41.241C164.385 41.241 165.14 42.2108 165.14 43.8819V43.895C165.14 45.5595 164.385 46.5359 163.045 46.5359Z" fill="black"/>
<path d="M170.239 47.5451C171.277 47.5451 171.994 47.1192 172.342 46.3655H172.447V47.4206H173.59V40.3562H172.447V44.5372C172.447 45.7757 171.783 46.5359 170.535 46.5359C169.405 46.5359 168.945 45.9265 168.945 44.6551V40.3562H167.802V44.9304C167.802 46.6015 168.63 47.5451 170.239 47.5451Z" fill="black"/>
<path d="M175.51 47.4206H176.652V43.043C176.652 42.0077 177.428 41.3196 178.518 41.3196C178.768 41.3196 178.984 41.3458 179.221 41.3851V40.2776C179.11 40.2579 178.867 40.2317 178.65 40.2317C177.691 40.2317 177.027 40.6642 176.758 41.4048H176.652V40.3562H175.51V47.4206Z" fill="black"/>
<path d="M185.932 47.5452C186.885 47.5452 187.626 47.1323 188.073 46.3787H188.178V47.4206H189.322V42.5843C189.322 41.1164 188.356 40.2317 186.628 40.2317C185.117 40.2317 184.04 40.9788 183.856 42.0863L183.849 42.1256H184.992L184.999 42.106C185.183 41.5555 185.741 41.241 186.589 41.241C187.646 41.241 188.178 41.7127 188.178 42.5843V43.2266L186.148 43.3511C184.5 43.4493 183.567 44.1768 183.567 45.435V45.4481C183.567 46.7326 184.585 47.5452 185.932 47.5452ZM184.737 45.4219V45.4088C184.737 44.7076 185.209 44.3275 186.286 44.2619L188.178 44.144V44.7863C188.178 45.7954 187.331 46.5556 186.168 46.5556C185.347 46.5556 184.737 46.1362 184.737 45.4219Z" fill="black"/>
<path d="M194.092 47.5452C195.794 47.5452 196.746 46.6342 197.035 45.3564L197.049 45.2843L195.919 45.2908L195.905 45.3302C195.642 46.1166 195.039 46.5359 194.086 46.5359C192.824 46.5359 192.01 45.494 192.01 43.8688V43.8556C192.01 42.2633 192.812 41.241 194.086 41.241C195.104 41.241 195.735 41.8045 195.912 42.4991L195.919 42.5188H197.055L197.049 42.4795C196.838 41.2213 195.807 40.2317 194.086 40.2317C192.102 40.2317 190.84 41.6603 190.84 43.8556V43.8688C190.84 46.11 192.108 47.5452 194.092 47.5452Z" fill="black"/>
<path d="M201.406 47.5452C203.108 47.5452 204.06 46.6342 204.349 45.3564L204.361 45.2843L203.232 45.2908L203.219 45.3302C202.956 46.1166 202.351 46.5359 201.399 46.5359C200.138 46.5359 199.323 45.494 199.323 43.8688V43.8556C199.323 42.2633 200.124 41.241 201.399 41.241C202.417 41.241 203.048 41.8045 203.225 42.4991L203.232 42.5188H204.369L204.361 42.4795C204.152 41.2213 203.12 40.2317 201.399 40.2317C199.415 40.2317 198.154 41.6603 198.154 43.8556V43.8688C198.154 46.11 199.422 47.5452 201.406 47.5452Z" fill="black"/>
<path d="M208.732 47.5452C210.749 47.5452 211.997 46.1558 211.997 43.895V43.8819C211.997 41.6145 210.749 40.2317 208.732 40.2317C206.715 40.2317 205.467 41.6145 205.467 43.8819V43.895C205.467 46.1558 206.715 47.5452 208.732 47.5452ZM208.732 46.5359C207.392 46.5359 206.636 45.5595 206.636 43.895V43.8819C206.636 42.2108 207.392 41.241 208.732 41.241C210.072 41.241 210.827 42.2108 210.827 43.8819V43.895C210.827 45.5595 210.072 46.5359 208.732 46.5359Z" fill="black"/>
<path d="M215.927 47.5451C216.965 47.5451 217.681 47.1192 218.029 46.3655H218.134V47.4206H219.278V40.3562H218.134V44.5372C218.134 45.7757 217.471 46.5359 216.223 46.5359C215.092 46.5359 214.633 45.9265 214.633 44.6551V40.3562H213.49V44.9304C213.49 46.6015 214.317 47.5451 215.927 47.5451Z" fill="black"/>
<path d="M221.197 47.4206H222.341V43.2397C222.341 42.0011 223.056 41.241 224.186 41.241C225.316 41.241 225.841 41.8504 225.841 43.1217V47.4206H226.985V42.8465C226.985 41.1688 226.098 40.2317 224.508 40.2317C223.464 40.2317 222.8 40.6708 222.445 41.4178H222.341V40.3562H221.197V47.4206Z" fill="black"/>
<path d="M231.355 47.473C231.578 47.473 231.795 47.4468 232.018 47.4076V46.4377C231.808 46.4573 231.696 46.4639 231.493 46.4639C230.757 46.4639 230.468 46.1296 230.468 45.2974V41.2999H232.018V40.3562H230.468V38.5278H229.286V40.3562H228.169V41.2999H229.286V45.5857C229.286 46.9357 229.896 47.473 231.355 47.473Z" fill="black"/>
<g style="mix-blend-mode:hard-light">
<path d="M285.464 21.6524H286.478V15.2971H286.568L291.026 21.6524H292.023V13.4568H291.009V19.835H290.918L286.46 13.4568H285.464V21.6524Z" fill="black" fill-opacity="0.4"/>
</g>
<g style="mix-blend-mode:color-burn">
<path d="M285.464 21.6524H286.478V15.2971H286.568L291.026 21.6524H292.023V13.4568H291.009V19.835H290.918L286.46 13.4568H285.464V21.6524Z" fill="#3F3F3F" fill-opacity="0.2"/>
</g>
<g style="mix-blend-mode:hard-light">
<path d="M296.443 21.7603C298.191 21.7603 299.273 20.5562 299.273 18.5968V18.5855C299.273 16.6203 298.191 15.4219 296.443 15.4219C294.695 15.4219 293.614 16.6203 293.614 18.5855V18.5968C293.614 20.5562 294.695 21.7603 296.443 21.7603ZM296.443 20.8856C295.282 20.8856 294.627 20.0394 294.627 18.5968V18.5855C294.627 17.1371 295.282 16.2966 296.443 16.2966C297.604 16.2966 298.259 17.1371 298.259 18.5855V18.5968C298.259 20.0394 297.604 20.8856 296.443 20.8856Z" fill="black" fill-opacity="0.4"/>
</g>
<g style="mix-blend-mode:color-burn">
<path d="M296.443 21.7603C298.191 21.7603 299.273 20.5562 299.273 18.5968V18.5855C299.273 16.6203 298.191 15.4219 296.443 15.4219C294.695 15.4219 293.614 16.6203 293.614 18.5855V18.5968C293.614 20.5562 294.695 21.7603 296.443 21.7603ZM296.443 20.8856C295.282 20.8856 294.627 20.0394 294.627 18.5968V18.5855C294.627 17.1371 295.282 16.2966 296.443 16.2966C297.604 16.2966 298.259 17.1371 298.259 18.5855V18.5968C298.259 20.0394 297.604 20.8856 296.443 20.8856Z" fill="#3F3F3F" fill-opacity="0.2"/>
</g>
<g style="mix-blend-mode:hard-light">
<path d="M301.694 21.6524H302.685L304.051 16.9157H304.143L305.515 21.6524H306.512L308.231 15.5298H307.245L306.039 20.4256H305.948L304.575 15.5298H303.636L302.264 20.4256H302.173L300.966 15.5298H299.975L301.694 21.6524Z" fill="black" fill-opacity="0.4"/>
</g>
<g style="mix-blend-mode:color-burn">
<path d="M301.694 21.6524H302.685L304.051 16.9157H304.143L305.515 21.6524H306.512L308.231 15.5298H307.245L306.039 20.4256H305.948L304.575 15.5298H303.636L302.264 20.4256H302.173L300.966 15.5298H299.975L301.694 21.6524Z" fill="#3F3F3F" fill-opacity="0.2"/>
</g>
<path d="M8.96936 14.5663C8.96936 12.6631 8.96936 11.7116 9.32293 10.9771C9.67597 10.2438 10.2689 9.65226 11.0041 9.30009C11.7404 8.94739 12.6942 8.94739 14.6021 8.94739H21.2753C23.1832 8.94739 24.1371 8.94739 24.8734 9.30009C25.6085 9.65226 26.2015 10.2438 26.5545 10.9771C26.9081 11.7116 26.9081 12.6631 26.9081 14.5663V21.2232C26.9081 23.1264 26.9081 24.0779 26.5545 24.8124C26.2015 25.5457 25.6085 26.1373 24.8734 26.4894C24.1371 26.8421 23.1832 26.8421 21.2753 26.8421H14.6021C12.6942 26.8421 11.7404 26.8421 11.0041 26.4894C10.2689 26.1373 9.67597 25.5457 9.32293 24.8124C8.96936 24.0779 8.96936 23.1264 8.96936 21.2232V14.5663Z" fill="#1546A7"/>
<path fill-rule="evenodd" clip-rule="evenodd" d="M16.4074 12.5263C16.1987 12.5262 16.0271 12.6974 16.0268 12.9055V15.5628H23.0626L19.8586 12.527L16.4074 12.5263ZM23.3203 16.3665V16.3662C23.3203 16.1588 23.1492 15.988 22.9412 15.988H20.2773V23.0083L23.3191 19.8104L23.3203 16.3665ZM19.4704 23.2631C19.6787 23.2626 19.8496 23.0916 19.8496 22.8838V20.2269H12.8143L16.0177 23.2625L19.4704 23.2631ZM12.5571 19.4233V19.4235C12.5571 19.6314 12.7287 19.8026 12.9372 19.8028H15.6002V12.7818L12.5576 15.9789L12.5571 19.4233Z" fill="white"/>
<path d="M37.5422 21.6663C39.29 21.6663 40.5882 20.6952 40.8614 19.1958V19.1844H39.8252L39.8138 19.1958C39.5576 20.1386 38.6865 20.7236 37.5422 20.7236C35.9593 20.7236 34.9687 19.4343 34.9687 17.384V17.3727C34.9687 15.3224 35.9593 14.0274 37.5364 14.0274C38.6694 14.0274 39.5462 14.692 39.8195 15.7427L39.8252 15.754H40.8557L40.8614 15.7427C40.6166 14.1694 39.2672 13.0847 37.5364 13.0847C35.3046 13.0847 33.9154 14.7317 33.9154 17.3727V17.384C33.9154 20.0193 35.3103 21.6663 37.5422 21.6663Z" fill="black"/>
<g style="mix-blend-mode:hard-light">
<path d="M37.5422 21.6663C39.29 21.6663 40.5882 20.6952 40.8614 19.1958V19.1844H39.8252L39.8138 19.1958C39.5576 20.1386 38.6865 20.7236 37.5422 20.7236C35.9593 20.7236 34.9687 19.4343 34.9687 17.384V17.3727C34.9687 15.3224 35.9593 14.0274 37.5364 14.0274C38.6694 14.0274 39.5462 14.692 39.8195 15.7427L39.8252 15.754H40.8557L40.8614 15.7427C40.6166 14.1694 39.2672 13.0847 37.5364 13.0847C35.3046 13.0847 33.9154 14.7317 33.9154 17.3727V17.384C33.9154 20.0193 35.3103 21.6663 37.5422 21.6663Z" fill="black" fill-opacity="0.4"/>
</g>
<g style="mix-blend-mode:color-burn">
<path d="M37.5422 21.6663C39.29 21.6663 40.5882 20.6952 40.8614 19.1958V19.1844H39.8252L39.8138 19.1958C39.5576 20.1386 38.6865 20.7236 37.5422 20.7236C35.9593 20.7236 34.9687 19.4343 34.9687 17.384V17.3727C34.9687 15.3224 35.9593 14.0274 37.5364 14.0274C38.6694 14.0274 39.5462 14.692 39.8195 15.7427L39.8252 15.754H40.8557L40.8614 15.7427C40.6166 14.1694 39.2672 13.0847 37.5364 13.0847C35.3046 13.0847 33.9154 14.7317 33.9154 17.3727V17.384C33.9154 20.0193 35.3103 21.6663 37.5422 21.6663Z" fill="#3F3F3F" fill-opacity="0.2"/>
</g>
<path d="M42.509 21.4732H43.5339V17.7418H48.0431V21.4732H49.0679V13.2777H48.0431V16.8218H43.5339V13.2777H42.509V21.4732Z" fill="black"/>
<g style="mix-blend-mode:hard-light">
<path d="M42.509 21.4732H43.5339V17.7418H48.0431V21.4732H49.0679V13.2777H48.0431V16.8218H43.5339V13.2777H42.509V21.4732Z" fill="black" fill-opacity="0.4"/>
</g>
<g style="mix-blend-mode:color-burn">
<path d="M42.509 21.4732H43.5339V17.7418H48.0431V21.4732H49.0679V13.2777H48.0431V16.8218H43.5339V13.2777H42.509V21.4732Z" fill="#3F3F3F" fill-opacity="0.2"/>
</g>
<path d="M50.4366 21.4732H51.5126L52.3382 19.1276H55.6062L56.4318 21.4732H57.5078L54.4789 13.2777H53.4654L50.4366 21.4732ZM53.9266 14.601H54.0178L55.3044 18.2586H52.6399L53.9266 14.601Z" fill="black"/>
<g style="mix-blend-mode:hard-light">
<path d="M50.4366 21.4732H51.5126L52.3382 19.1276H55.6062L56.4318 21.4732H57.5078L54.4789 13.2777H53.4654L50.4366 21.4732ZM53.9266 14.601H54.0178L55.3044 18.2586H52.6399L53.9266 14.601Z" fill="black" fill-opacity="0.4"/>
</g>
<g style="mix-blend-mode:color-burn">
<path d="M50.4366 21.4732H51.5126L52.3382 19.1276H55.6062L56.4318 21.4732H57.5078L54.4789 13.2777H53.4654L50.4366 21.4732ZM53.9266 14.601H54.0178L55.3044 18.2586H52.6399L53.9266 14.601Z" fill="#3F3F3F" fill-opacity="0.2"/>
</g>
<path d="M61.5696 21.6663C63.4028 21.6663 64.6042 20.7122 64.6042 19.1788V19.1731C64.6042 17.9918 63.9266 17.3045 62.2129 16.924L61.3019 16.7195C60.186 16.4754 59.7362 16.0324 59.7362 15.3792V15.3735C59.7362 14.5159 60.5277 14.0332 61.5524 14.0274C62.6228 14.0218 63.306 14.5557 63.4199 15.2769L63.4313 15.3508H64.4561L64.4504 15.2713C64.365 14.0502 63.2206 13.0847 61.5809 13.0847C59.8843 13.0847 58.6943 14.0445 58.6887 15.4019V15.4076C58.6887 16.5946 59.4003 17.35 61.0457 17.7135L61.9567 17.9122C63.084 18.1621 63.5565 18.6278 63.5565 19.3094V19.3151C63.5565 20.1499 62.7424 20.7236 61.6265 20.7236C60.4422 20.7236 59.5882 20.2068 59.5142 19.3889L59.5085 19.3264H58.4836L58.4894 19.3889C58.6089 20.7236 59.7704 21.6663 61.5696 21.6663Z" fill="black"/>
<g style="mix-blend-mode:hard-light">
<path d="M61.5696 21.6663C63.4028 21.6663 64.6042 20.7122 64.6042 19.1788V19.1731C64.6042 17.9918 63.9266 17.3045 62.2129 16.924L61.3019 16.7195C60.186 16.4754 59.7362 16.0324 59.7362 15.3792V15.3735C59.7362 14.5159 60.5277 14.0332 61.5524 14.0274C62.6228 14.0218 63.306 14.5557 63.4199 15.2769L63.4313 15.3508H64.4561L64.4504 15.2713C64.365 14.0502 63.2206 13.0847 61.5809 13.0847C59.8843 13.0847 58.6943 14.0445 58.6887 15.4019V15.4076C58.6887 16.5946 59.4003 17.35 61.0457 17.7135L61.9567 17.9122C63.084 18.1621 63.5565 18.6278 63.5565 19.3094V19.3151C63.5565 20.1499 62.7424 20.7236 61.6265 20.7236C60.4422 20.7236 59.5882 20.2068 59.5142 19.3889L59.5085 19.3264H58.4836L58.4894 19.3889C58.6089 20.7236 59.7704 21.6663 61.5696 21.6663Z" fill="black" fill-opacity="0.4"/>
</g>
<g style="mix-blend-mode:color-burn">
<path d="M61.5696 21.6663C63.4028 21.6663 64.6042 20.7122 64.6042 19.1788V19.1731C64.6042 17.9918 63.9266 17.3045 62.2129 16.924L61.3019 16.7195C60.186 16.4754 59.7362 16.0324 59.7362 15.3792V15.3735C59.7362 14.5159 60.5277 14.0332 61.5524 14.0274C62.6228 14.0218 63.306 14.5557 63.4199 15.2769L63.4313 15.3508H64.4561L64.4504 15.2713C64.365 14.0502 63.2206 13.0847 61.5809 13.0847C59.8843 13.0847 58.6943 14.0445 58.6887 15.4019V15.4076C58.6887 16.5946 59.4003 17.35 61.0457 17.7135L61.9567 17.9122C63.084 18.1621 63.5565 18.6278 63.5565 19.3094V19.3151C63.5565 20.1499 62.7424 20.7236 61.6265 20.7236C60.4422 20.7236 59.5882 20.2068 59.5142 19.3889L59.5085 19.3264H58.4836L58.4894 19.3889C58.6089 20.7236 59.7704 21.6663 61.5696 21.6663Z" fill="#3F3F3F" fill-opacity="0.2"/>
</g>
<path d="M66.2404 21.4732H71.3304V20.5532H67.2653V17.7362H71.1197V16.8274H67.2653V14.1979H71.3304V13.2777H66.2404V21.4732Z" fill="black"/>
<g style="mix-blend-mode:hard-light">
<path d="M66.2404 21.4732H71.3304V20.5532H67.2653V17.7362H71.1197V16.8274H67.2653V14.1979H71.3304V13.2777H66.2404V21.4732Z" fill="black" fill-opacity="0.4"/>
</g>
<g style="mix-blend-mode:color-burn">
<path d="M66.2404 21.4732H71.3304V20.5532H67.2653V17.7362H71.1197V16.8274H67.2653V14.1979H71.3304V13.2777H66.2404V21.4732Z" fill="#3F3F3F" fill-opacity="0.2"/>
</g>
</g>
<defs>
<clipPath id="clip0_1_554">
<rect width="322" height="136" fill="white"/>
</clipPath>
</defs>
</svg>
